<?xml version="1.0" encoding="utf-8"?>
<!-- Generator: Adobe Illustrator 16.0.0, SVG Export Plug-In . SVG Version: 6.00 Build 0)  -->
<!DOCTYPE svg PUBLIC "-//W3C//DTD SVG 1.1//EN" "http://www.w3.org/Graphics/SVG/1.1/DTD/svg11.dtd">
<svg version="1.1" id="Layer_1" xmlns="http://www.w3.org/2000/svg" xmlns:xlink="http://www.w3.org/1999/xlink" x="0px" y="0px"
	 width="69.383px" height="58.553px" viewBox="0 0 69.383 58.553" enable-background="new 0 0 69.383 58.553" xml:space="preserve">
<g>
	<path fill="#4C4C4C" d="M51.187,23.86H32.833l4.014-4.026c1.561-1.564,1.557-4.097-0.008-5.657s-4.098-1.556-5.656,0.008
		l-10.82,10.852c-1.558,1.561-1.558,4.087,0,5.648l10.82,10.852c0.781,0.784,1.807,1.176,2.832,1.176
		c1.021,0,2.044-0.389,2.824-1.167c1.564-1.56,1.568-4.092,0.008-5.657l-4.017-4.029h18.356c2.209,0,4-1.791,4-4
		S53.396,23.86,51.187,23.86z"/>
</g>
</svg>
